<?xml version="1.0" standalone="no"?>
<!DOCTYPE svg PUBLIC "-//W3C//DTD SVG 20010904//EN"
 "http://www.w3.org/TR/2001/REC-SVG-20010904/DTD/svg10.dtd">
<svg version="1.0" xmlns="http://www.w3.org/2000/svg"
 width="512.000000pt" height="512.000000pt" viewBox="0 0 512.000000 512.000000"
 preserveAspectRatio="xMidYMid meet">
<metadata>
Created by potrace 1.11, written by Peter Selinger 2001-2013
</metadata>
<g transform="translate(0.000000,512.000000) scale(0.100000,-0.100000)"
fill="#000000" stroke="none">
<path d="M2389 5049 c-517 -35 -1049 -253 -1444 -591 -265 -228 -460 -477
-614 -789 -157 -316 -239 -616 -261 -962 -56 -894 402 -1783 1163 -2253 425
-263 844 -385 1327 -385 469 0 867 112 1285 362 409 244 717 577 940 1014 430
846 337 1858 -240 2620 -238 314 -527 552 -880 725 -326 160 -606 236 -955
260 -158 11 -153 11 -321 -1z m356 -1444 c138 -37 296 -135 380 -234 109 -131
153 -293 125 -458 -17 -101 -65 -193 -155 -298 -119 -139 -172 -224 -196 -319
-10 -42 -10 -49 8 -69 46 -49 55 -104 28 -157 -13 -25 -13 -32 0 -57 27 -51
13 -127 -28 -162 -12 -9 -13 -18 -5 -39 26 -69 -21 -141 -106 -164 -29 -8 -50
-23 -71 -51 -65 -87 -173 -111 -274 -61 -31 16 -64 42 -80 64 -18 26 -38 40
-66 48 -83 22 -130 93 -107 160 9 25 7 33 -5 44 -40 32 -54 112 -28 161 12 24
12 32 -1 62 -24 58 -12 119 30 154 48 40 -30 205 -179 376 -97 112 -138 187
-160 290 -18 88 -19 142 0 228 48 227 256 423 512 481 37 9 77 18 88 20 38 9
231 -4 290 -19z"/>
<path d="M2485 3440 c-185 -19 -351 -125 -418 -267 -29 -62 -32 -77 -32 -163
0 -121 22 -171 130 -295 132 -151 197 -264 227 -397 l11 -48 148 0 148 0 7 38
c21 121 105 269 234 412 37 41 80 100 96 130 27 50 29 64 29 160 0 95 -3 110
-29 163 -86 177 -321 290 -551 267z m192 -225 c101 -30 173 -104 181 -185 4
-42 2 -50 -18 -60 -31 -17 -68 1 -76 37 -12 56 -16 62 -47 82 -32 20 -87 35
-160 46 -45 7 -66 39 -48 74 10 17 21 21 65 21 29 0 75 -7 103 -15z"/>
</g>
</svg>
